<svg id="Layer_1" data-name="Layer 1" xmlns="http://www.w3.org/2000/svg" viewBox="0 0 64 64"><defs><style>.cls-1{fill:#deffe8;}.cls-2{fill:none;stroke:#4db379;stroke-linecap:round;stroke-linejoin:round;stroke-width:3px;}.cls-3{font-size:12.85px;fill:#4db379;font-family:SFCompactRounded-Bold, SF Compact Rounded;font-weight:700;}.cls-4{letter-spacing:-0.05em;}</style></defs><circle class="cls-1" cx="45.38" cy="33.08" r="13.5"/><path class="cls-2" d="M50.76,30.69h0a6.92,6.92,0,0,0,0-9.8h0a6.93,6.93,0,0,1-2-4.9h0A6.93,6.93,0,0,0,41.8,9.06h0a6.93,6.93,0,0,1-4.9-2h0a6.92,6.92,0,0,0-9.8,0h0a6.93,6.93,0,0,1-4.9,2h0A6.93,6.93,0,0,0,15.27,16h0a6.93,6.93,0,0,1-2,4.9h0a6.92,6.92,0,0,0,0,9.8h0a6.93,6.93,0,0,1,2,4.9h0a6.93,6.93,0,0,0,6.93,6.93h0a6.93,6.93,0,0,1,4.9,2h0a6.92,6.92,0,0,0,9.8,0h0a6.93,6.93,0,0,1,4.9-2h0a6.93,6.93,0,0,0,6.93-6.93h0A6.93,6.93,0,0,1,50.76,30.69Z"/><polyline class="cls-2" points="42.23 46.58 42.23 59 32 55.38 21.77 59 21.77 46.58"/><text class="cls-3" transform="translate(29.3 23.5)">1<tspan class="cls-4" x="-10.3" y="10.54">Y</tspan><tspan x="-3.52" y="10.54">ear</tspan></text></svg>