<svg id="Layer_1" data-name="Layer 1" xmlns="http://www.w3.org/2000/svg" viewBox="0 0 43.31 56.97"><defs><style>.cls-1{fill:#2d6829;}.cls-2{fill:none;stroke:#fff;stroke-linecap:round;stroke-linejoin:round;stroke-width:3px;}</style></defs><circle class="cls-1" cx="29.07" cy="21.5" r="13.5"/><path class="cls-2" d="M25.3,31.9s-2.6-10.9-8.2-10,.6,7.2,1.2,11.4.9,14,10.1,17.7" transform="translate(-10.33 -3.5)"/><path class="cls-2" d="M28.4,51a14.66,14.66,0,0,0,10.1.6c6.5-2,11.2-7.9,13.1-10.6a3.41,3.41,0,0,0,.3-3.1,4.45,4.45,0,0,0-2.6-2.6c1-5.4-3.2-5.2-3.2-5.2a5.29,5.29,0,0,0-4.3-5.4l8.6-8.6a3.47,3.47,0,0,0,.1-4.9h0l-.1-.1h0a3.47,3.47,0,0,0-4.9.1h0c-3.6,3.9-10.2,11-12.9,13.7a12.37,12.37,0,0,1-8.3,3.6" transform="translate(-10.33 -3.5)"/><path class="cls-2" d="M42.3,24l-6.2,6.2a3.26,3.26,0,0,0,0,4.5h0a3.14,3.14,0,0,0,4.4.1L46,30" transform="translate(-10.33 -3.5)"/><path class="cls-2" d="M46,30l-8,7.4a3.17,3.17,0,0,0,0,4.5h0a3.24,3.24,0,0,0,4.4.1L46,38.4" transform="translate(-10.33 -3.5)"/><path class="cls-2" d="M49.3,35.2l-6.8,6.6a3.17,3.17,0,0,0,0,4.5h0a3.14,3.14,0,0,0,4.4.1" transform="translate(-10.33 -3.5)"/><path class="cls-2" d="M18.8,37.7l-5.6,5.6a4.53,4.53,0,0,0-1.1,4.8A17.49,17.49,0,0,0,22.6,58.7a4.69,4.69,0,0,0,4.9-1.1l2-1.9" transform="translate(-10.33 -3.5)"/><line class="cls-2" x1="14.17" y1="14.1" x2="8.07" y2="1.5"/><line class="cls-2" x1="18.37" y1="4.9" x2="19.17" y2="11.4"/><line class="cls-2" x1="24.87" y1="11.4" x2="29.37" y2="1.5"/></svg>