<svg id="Layer_1" data-name="Layer 1" xmlns="http://www.w3.org/2000/svg" viewBox="0 0 64 64"><defs><style>.cls-1{fill:#deffe8;}.cls-2{fill:none;stroke:#4db379;stroke-linecap:round;stroke-linejoin:round;stroke-width:3px;}</style></defs><circle class="cls-1" cx="32" cy="32" r="13.5"/><path class="cls-2" d="M55.48,32.09A6.52,6.52,0,0,0,52,26.33a6.53,6.53,0,0,0-3.37-8.42,6.5,6.5,0,0,0-3.3-7.38,6.52,6.52,0,0,0-13,1v.12h0v40h.06a5.29,5.29,0,0,0-.06.8A6.52,6.52,0,0,0,45.3,53.69h0a6.51,6.51,0,0,0,6.51-6.51h0v-.42a6.53,6.53,0,0,0,2.65-8.83,7,7,0,0,0-.86-1.23A6.49,6.49,0,0,0,55.48,32.09Z"/><path class="cls-2" d="M9.3,32.09a6.52,6.52,0,0,1,3.46-5.76,6.53,6.53,0,0,1,3.37-8.42,6.52,6.52,0,0,1,3.31-7.38,6.51,6.51,0,0,1,13,1v.12h0v40h0a7,7,0,0,1,0,.8,6.52,6.52,0,0,1-12.91,1.26h0A6.51,6.51,0,0,1,13,47.18h0v-.42a6.53,6.53,0,0,1-2.65-8.83,7,7,0,0,1,.86-1.23A6.49,6.49,0,0,1,9.3,32.09Z"/><path class="cls-2" d="M16.16,17.81S20,27,22.11,27h3.42"/><path class="cls-2" d="M32.39,22.37s-2-3.43-4.57-3.43H24.39"/><path class="cls-2" d="M32.39,15.56s1.83,2.93,4.12,2.93h4.11"/><path class="cls-2" d="M18.38,11.23s1.66-1.89,5.1-.52"/><path class="cls-2" d="M45.1,9.51a2.27,2.27,0,0,1-1.67,2.75,1.57,1.57,0,0,1-.3.05"/><path class="cls-2" d="M48.62,17.81s-3.42,4.33-3.42,7.3v4.12"/><line class="cls-2" x1="53.65" y1="36.54" x2="47.48" y2="36.54"/><path class="cls-2" d="M51.82,46.6s-.45-3.89-5.48-3.89H43.28a2.65,2.65,0,0,1-2.66-2.65V38.6"/><path class="cls-2" d="M20.73,39.06s1.83,4.8,5.49,4.8h6.17"/><path class="cls-2" d="M25.08,33.8s2.74,2,7.31,0S39,32.45,39,32.45"/><line class="cls-2" x1="45.16" y1="25.57" x2="38.56" y2="25.57"/><path class="cls-2" d="M32.39,49.69a8.56,8.56,0,0,1,5.71-2.4"/><path class="cls-2" d="M45.2,54.37a17.13,17.13,0,0,0,0-3.65"/><path class="cls-2" d="M25.08,58.9s1.34-6.81-2.75-9.56"/><path class="cls-2" d="M13,46.6a10.09,10.09,0,0,1,2.74-4.12"/><line class="cls-2" x1="21.82" y1="26.94" x2="18.19" y2="30.57"/><path class="cls-2" d="M11.13,36.54a8.65,8.65,0,0,0,2.74,1.35"/></svg>