<svg id="Layer_1" data-name="Layer 1" xmlns="http://www.w3.org/2000/svg" viewBox="0 0 57 57"><defs><style>.cls-1{fill:#2d6829;}.cls-2{fill:none;stroke:#fff;stroke-linecap:round;stroke-linejoin:round;stroke-width:3px;}</style></defs><circle class="cls-1" cx="42" cy="42" r="13.5"/><circle class="cls-2" cx="28.5" cy="28.5" r="27"/><path class="cls-2" d="M16.7,37.9l1.2-1.2a16.5,16.5,0,0,0,14,6.9c9.8,0,13.8-6.9,13.8-6.9l.9.9" transform="translate(-3.5 -3.5)"/><path class="cls-2" d="M35.3,47.6l1,1.5a5.35,5.35,0,0,0,7.4,1.7,5.26,5.26,0,0,0,1.7-7.4h0L43,39.8" transform="translate(-3.5 -3.5)"/><line class="cls-2" x1="37.2" y1="42.5" x2="34.7" y2="39"/><path class="cls-2" d="M21.5,25a2.78,2.78,0,0,1,4-.5c.2.2.4.3.5.5" transform="translate(-3.5 -3.5)"/><path class="cls-2" d="M37.8,25a2.86,2.86,0,0,1,4-.6l.6.6" transform="translate(-3.5 -3.5)"/></svg>